<?xml version="1.0" encoding="utf-8"?>
<svg version="1.1" id="Layer_1" xmlns="http://www.w3.org/2000/svg" xmlns:xlink="http://www.w3.org/1999/xlink" x="0px" y="0px" viewBox="0 0 100 100" style="enable-background:new 0 0 100 100;" xml:space="preserve">
<g>
<path d="M17,62h34v13c0,1.7,1.1,3.3,2.8,4c0.5,0.2,1,0.3,1.5,0.3c1,0,1.9-0.4,2.7-1.1l25.2-26.1c1.5-1.6,1.5-4,0-5.5L57.9,20.5
c-1.2-1.2-3-1.6-4.6-1C51.9,20.1,51,21.4,51,23v13H17c-2.2,0-4,1.8-4,4v18C13,60.2,14.8,62,17,62z M17,40h34c2.2,0,4-1.8,4-4V23.2
c0,0,0,0,0,0l25.2,26L55.2,75.2C55.1,75.2,55,75.1,55,75V62c0-2.2-1.8-4-4-4H17V40z"/>
</g>
</svg>
